# xmcd
#
# Track frame offsets:
#	150
#	11979
#	25702
#	37467
#	48356
#	61153
#	73832
#	84523
#	95256
#	107378
#	116666
#	126829
#	136650
#	146377
#	153887
#	165658
#	176521
#	189611
#	199922
#	210418
#	219114
#	229517
#	239425
#	250610
#	260899
#	274591
#	283892
#
# Disc length: 3918 seconds
#
# Revision: 1
# Processed by: cddbd v1.5.2PL0 Copyright (c) Steve Scherf et al.
# Submitted via: audiograbber 1.83.01
#
DISCID=7f0f4c1b
DTITLE=Joe Tex - Get Way Back (The 1950s Recordings)
DYEAR=2008
DGENRE=R&B
TTITLE0=Davy, You Upset My Home
TTITLE1=Come In This House
TTITLE2=Another Man's Woman
TTITLE3=Right Back To My Arms
TTITLE4=My Biggest Mistake
TTITLE5=I Had To Come Back To You
TTITLE6=She's Mine
TTITLE7=Get Way Back
TTITLE8=Pneumonia
TTITLE9=I Want To Have A Talk With You
TTITLE10=Ain't Nobody's Business
TTITLE11=Cut It Out
TTITLE12=Put Your Confidence In Me
TTITLE13=Open The Door
TTITLE14=Just For You And Me
TTITLE15=You Little Baby Faced Thing
TTITLE16=Mother's Advice
TTITLE17=Charlie Brown Got Expelled
TTITLE18=Blessed Are These Tears
TTITLE19=Yum, Yum, Yum
TTITLE20=Don't Hold It Against Me
TTITLE21=Grannie Stole The Show
TTITLE22=Boys Will Be Boys
TTITLE23=Baby You're Right (I'm Gonna Hold What I Got)
TTITLE24=Come In This House (with group)
TTITLE25=I Want To Have A Talk With You (with group)
TTITLE26=Gee, I Really Want You (with group)
EXTD=
EXTT0=
EXTT1=
EXTT2=
EXTT3=
EXTT4=
EXTT5=
EXTT6=
EXTT7=
EXTT8=
EXTT9=
EXTT10=
EXTT11=
EXTT12=
EXTT13=
EXTT14=
EXTT15=
EXTT16=
EXTT17=
EXTT18=
EXTT19=
EXTT20=
EXTT21=
EXTT22=
EXTT23=
EXTT24=
EXTT25=
EXTT26=
PLAYORDER=
